<mxfile host="app.diagrams.net" modified="2021-07-15T16:42:13.640Z" agent="5.0 (Windows NT 10.0; Win64; x64) AppleWebKit/537.36 (KHTML, like Gecko) Chrome/91.0.4472.124 Safari/537.36 Edg/91.0.864.67" etag="0qn5C-pRnUNPq2j5thxE" version="14.8.4" type="github">
  <diagram id="Ezy-y-FbjfAG1BCbXXI5" name="Page-1">
    <mxGraphModel dx="1865" dy="617" grid="1" gridSize="10" guides="1" tooltips="1" connect="1" arrows="1" fold="1" page="1" pageScale="1" pageWidth="827" pageHeight="1169" background="none" math="0" shadow="0">
      <root>
        <mxCell id="0" />
        <mxCell id="1" parent="0" />
        <mxCell id="G5f44dBYUgscpnxHCPcD-38" value="" style="edgeStyle=orthogonalEdgeStyle;rounded=0;orthogonalLoop=1;jettySize=auto;html=1;" parent="1" source="hrU85InFywEGXKXuBzPO-2" target="hrU85InFywEGXKXuBzPO-4" edge="1">
          <mxGeometry relative="1" as="geometry" />
        </mxCell>
        <mxCell id="hrU85InFywEGXKXuBzPO-2" value="Begin" style="ellipse;whiteSpace=wrap;html=1;" parent="1" vertex="1">
          <mxGeometry x="-600" y="120" width="120" height="80" as="geometry" />
        </mxCell>
        <mxCell id="j_K-GDXODY1bReVwgwL4-41" value="" style="edgeStyle=orthogonalEdgeStyle;rounded=0;orthogonalLoop=1;jettySize=auto;html=1;" parent="1" source="hrU85InFywEGXKXuBzPO-3" target="j_K-GDXODY1bReVwgwL4-6" edge="1">
          <mxGeometry relative="1" as="geometry" />
        </mxCell>
        <mxCell id="hrU85InFywEGXKXuBzPO-3" value="stop = step_n&lt;br&gt;count = 0" style="shape=parallelogram;perimeter=parallelogramPerimeter;whiteSpace=wrap;html=1;fixedSize=1;" parent="1" vertex="1">
          <mxGeometry x="-425" y="230" width="130" height="70" as="geometry" />
        </mxCell>
        <mxCell id="j_K-GDXODY1bReVwgwL4-39" value="" style="edgeStyle=orthogonalEdgeStyle;rounded=0;orthogonalLoop=1;jettySize=auto;html=1;" parent="1" source="hrU85InFywEGXKXuBzPO-4" target="hrU85InFywEGXKXuBzPO-3" edge="1">
          <mxGeometry relative="1" as="geometry" />
        </mxCell>
        <mxCell id="hrU85InFywEGXKXuBzPO-4" value="&lt;span&gt;Nhận chỉ thị từ&lt;/span&gt;&lt;br&gt;&lt;span&gt;GUI app (step_n, speed)&lt;/span&gt;" style="rounded=0;whiteSpace=wrap;html=1;" parent="1" vertex="1">
          <mxGeometry x="-430" y="120" width="140" height="80" as="geometry" />
        </mxCell>
        <mxCell id="j_K-GDXODY1bReVwgwL4-24" value="" style="edgeStyle=orthogonalEdgeStyle;rounded=0;orthogonalLoop=1;jettySize=auto;html=1;" parent="1" source="j_K-GDXODY1bReVwgwL4-4" target="j_K-GDXODY1bReVwgwL4-5" edge="1">
          <mxGeometry relative="1" as="geometry" />
        </mxCell>
        <mxCell id="G5f44dBYUgscpnxHCPcD-3" value="" style="edgeStyle=orthogonalEdgeStyle;rounded=0;orthogonalLoop=1;jettySize=auto;html=1;" parent="1" source="j_K-GDXODY1bReVwgwL4-4" target="j_K-GDXODY1bReVwgwL4-10" edge="1">
          <mxGeometry relative="1" as="geometry" />
        </mxCell>
        <mxCell id="j_K-GDXODY1bReVwgwL4-4" value="S3 = 0 and&lt;br&gt;S1 = S5 = 1&amp;nbsp;" style="rhombus;whiteSpace=wrap;html=1;" parent="1" vertex="1">
          <mxGeometry x="-420" y="440" width="120" height="80" as="geometry" />
        </mxCell>
        <mxCell id="j_K-GDXODY1bReVwgwL4-5" value="Đi thẳng" style="rounded=0;whiteSpace=wrap;html=1;" parent="1" vertex="1">
          <mxGeometry x="-580" y="450" width="120" height="60" as="geometry" />
        </mxCell>
        <mxCell id="G5f44dBYUgscpnxHCPcD-2" value="" style="edgeStyle=orthogonalEdgeStyle;rounded=0;orthogonalLoop=1;jettySize=auto;html=1;" parent="1" source="j_K-GDXODY1bReVwgwL4-6" target="j_K-GDXODY1bReVwgwL4-4" edge="1">
          <mxGeometry relative="1" as="geometry" />
        </mxCell>
        <mxCell id="j_K-GDXODY1bReVwgwL4-6" value="&lt;span&gt;Đọc giá trị cảm biến&lt;/span&gt;&lt;br&gt;&lt;span&gt;(S1,S2,S3,S4,S5)&lt;/span&gt;" style="rounded=0;whiteSpace=wrap;html=1;" parent="1" vertex="1">
          <mxGeometry x="-420" y="340" width="120" height="70" as="geometry" />
        </mxCell>
        <mxCell id="j_K-GDXODY1bReVwgwL4-25" value="" style="edgeStyle=orthogonalEdgeStyle;rounded=0;orthogonalLoop=1;jettySize=auto;html=1;" parent="1" source="j_K-GDXODY1bReVwgwL4-10" target="j_K-GDXODY1bReVwgwL4-11" edge="1">
          <mxGeometry relative="1" as="geometry" />
        </mxCell>
        <mxCell id="G5f44dBYUgscpnxHCPcD-4" value="" style="edgeStyle=orthogonalEdgeStyle;rounded=0;orthogonalLoop=1;jettySize=auto;html=1;" parent="1" source="j_K-GDXODY1bReVwgwL4-10" target="j_K-GDXODY1bReVwgwL4-13" edge="1">
          <mxGeometry relative="1" as="geometry" />
        </mxCell>
        <mxCell id="j_K-GDXODY1bReVwgwL4-10" value="S5 = 0 and S1 = 1" style="rhombus;whiteSpace=wrap;html=1;" parent="1" vertex="1">
          <mxGeometry x="-420" y="550" width="120" height="80" as="geometry" />
        </mxCell>
        <mxCell id="j_K-GDXODY1bReVwgwL4-11" value="Rẽ phải" style="rounded=0;whiteSpace=wrap;html=1;" parent="1" vertex="1">
          <mxGeometry x="-580" y="560" width="120" height="60" as="geometry" />
        </mxCell>
        <mxCell id="G5f44dBYUgscpnxHCPcD-1" value="" style="edgeStyle=orthogonalEdgeStyle;rounded=0;orthogonalLoop=1;jettySize=auto;html=1;" parent="1" source="j_K-GDXODY1bReVwgwL4-13" target="j_K-GDXODY1bReVwgwL4-14" edge="1">
          <mxGeometry relative="1" as="geometry" />
        </mxCell>
        <mxCell id="G5f44dBYUgscpnxHCPcD-6" value="" style="edgeStyle=orthogonalEdgeStyle;rounded=0;orthogonalLoop=1;jettySize=auto;html=1;" parent="1" source="j_K-GDXODY1bReVwgwL4-13" target="j_K-GDXODY1bReVwgwL4-18" edge="1">
          <mxGeometry relative="1" as="geometry" />
        </mxCell>
        <mxCell id="j_K-GDXODY1bReVwgwL4-13" value="S1 = 0 and S5 = 1" style="rhombus;whiteSpace=wrap;html=1;" parent="1" vertex="1">
          <mxGeometry x="-420" y="660" width="120" height="80" as="geometry" />
        </mxCell>
        <mxCell id="j_K-GDXODY1bReVwgwL4-14" value="Rẽ trái" style="rounded=0;whiteSpace=wrap;html=1;" parent="1" vertex="1">
          <mxGeometry x="-580" y="670" width="120" height="60" as="geometry" />
        </mxCell>
        <mxCell id="G5f44dBYUgscpnxHCPcD-19" value="" style="edgeStyle=orthogonalEdgeStyle;rounded=0;orthogonalLoop=1;jettySize=auto;html=1;" parent="1" source="j_K-GDXODY1bReVwgwL4-18" target="j_K-GDXODY1bReVwgwL4-34" edge="1">
          <mxGeometry relative="1" as="geometry" />
        </mxCell>
        <mxCell id="j_K-GDXODY1bReVwgwL4-18" value="S1=S2=S3=S4=S5=0" style="rhombus;whiteSpace=wrap;html=1;" parent="1" vertex="1">
          <mxGeometry x="-430" y="770" width="140" height="80" as="geometry" />
        </mxCell>
        <mxCell id="j_K-GDXODY1bReVwgwL4-30" value="count = stop" style="rhombus;whiteSpace=wrap;html=1;" parent="1" vertex="1">
          <mxGeometry x="-585" y="870" width="130" height="80" as="geometry" />
        </mxCell>
        <mxCell id="G5f44dBYUgscpnxHCPcD-47" value="" style="edgeStyle=orthogonalEdgeStyle;rounded=0;orthogonalLoop=1;jettySize=auto;html=1;" parent="1" source="j_K-GDXODY1bReVwgwL4-32" target="j_K-GDXODY1bReVwgwL4-33" edge="1">
          <mxGeometry relative="1" as="geometry" />
        </mxCell>
        <mxCell id="j_K-GDXODY1bReVwgwL4-32" value="Dừng xe" style="rounded=0;whiteSpace=wrap;html=1;" parent="1" vertex="1">
          <mxGeometry x="-580" y="990" width="120" height="60" as="geometry" />
        </mxCell>
        <mxCell id="j_K-GDXODY1bReVwgwL4-33" value="End&lt;br&gt;" style="ellipse;whiteSpace=wrap;html=1;" parent="1" vertex="1">
          <mxGeometry x="-420" y="980" width="120" height="80" as="geometry" />
        </mxCell>
        <mxCell id="G5f44dBYUgscpnxHCPcD-20" value="" style="edgeStyle=orthogonalEdgeStyle;rounded=0;orthogonalLoop=1;jettySize=auto;html=1;" parent="1" source="j_K-GDXODY1bReVwgwL4-34" target="j_K-GDXODY1bReVwgwL4-30" edge="1">
          <mxGeometry relative="1" as="geometry" />
        </mxCell>
        <mxCell id="j_K-GDXODY1bReVwgwL4-34" value="count = count + 1" style="rounded=0;whiteSpace=wrap;html=1;" parent="1" vertex="1">
          <mxGeometry x="-580" y="780" width="120" height="60" as="geometry" />
        </mxCell>
        <mxCell id="G5f44dBYUgscpnxHCPcD-21" value="" style="endArrow=none;html=1;exitX=0;exitY=0.5;exitDx=0;exitDy=0;" parent="1" source="j_K-GDXODY1bReVwgwL4-30" edge="1">
          <mxGeometry width="50" height="50" relative="1" as="geometry">
            <mxPoint x="-480" y="770" as="sourcePoint" />
            <mxPoint x="-650" y="910" as="targetPoint" />
          </mxGeometry>
        </mxCell>
        <mxCell id="G5f44dBYUgscpnxHCPcD-25" value="" style="endArrow=none;html=1;entryX=0.5;entryY=1;entryDx=0;entryDy=0;" parent="1" target="j_K-GDXODY1bReVwgwL4-18" edge="1">
          <mxGeometry width="50" height="50" relative="1" as="geometry">
            <mxPoint x="-360" y="910" as="sourcePoint" />
            <mxPoint x="-430" y="730" as="targetPoint" />
          </mxGeometry>
        </mxCell>
        <mxCell id="G5f44dBYUgscpnxHCPcD-26" value="" style="endArrow=none;html=1;" parent="1" edge="1">
          <mxGeometry width="50" height="50" relative="1" as="geometry">
            <mxPoint x="-360" y="910" as="sourcePoint" />
            <mxPoint x="-200" y="910" as="targetPoint" />
          </mxGeometry>
        </mxCell>
        <mxCell id="G5f44dBYUgscpnxHCPcD-28" value="" style="endArrow=classic;html=1;" parent="1" edge="1">
          <mxGeometry width="50" height="50" relative="1" as="geometry">
            <mxPoint x="-650" y="320" as="sourcePoint" />
            <mxPoint x="-360" y="320" as="targetPoint" />
          </mxGeometry>
        </mxCell>
        <mxCell id="G5f44dBYUgscpnxHCPcD-30" value="" style="endArrow=none;html=1;" parent="1" edge="1">
          <mxGeometry width="50" height="50" relative="1" as="geometry">
            <mxPoint x="-650" y="910" as="sourcePoint" />
            <mxPoint x="-650" y="320" as="targetPoint" />
          </mxGeometry>
        </mxCell>
        <mxCell id="G5f44dBYUgscpnxHCPcD-31" value="" style="endArrow=classic;html=1;exitX=0;exitY=0.5;exitDx=0;exitDy=0;" parent="1" source="j_K-GDXODY1bReVwgwL4-5" edge="1">
          <mxGeometry width="50" height="50" relative="1" as="geometry">
            <mxPoint x="-480" y="580" as="sourcePoint" />
            <mxPoint x="-650" y="480" as="targetPoint" />
          </mxGeometry>
        </mxCell>
        <mxCell id="G5f44dBYUgscpnxHCPcD-32" value="" style="endArrow=classic;html=1;exitX=0;exitY=0.5;exitDx=0;exitDy=0;" parent="1" source="j_K-GDXODY1bReVwgwL4-11" edge="1">
          <mxGeometry width="50" height="50" relative="1" as="geometry">
            <mxPoint x="-480" y="640" as="sourcePoint" />
            <mxPoint x="-650" y="590" as="targetPoint" />
          </mxGeometry>
        </mxCell>
        <mxCell id="G5f44dBYUgscpnxHCPcD-33" value="" style="endArrow=classic;html=1;exitX=0;exitY=0.5;exitDx=0;exitDy=0;" parent="1" source="j_K-GDXODY1bReVwgwL4-14" edge="1">
          <mxGeometry width="50" height="50" relative="1" as="geometry">
            <mxPoint x="-480" y="700" as="sourcePoint" />
            <mxPoint x="-650" y="700" as="targetPoint" />
          </mxGeometry>
        </mxCell>
        <mxCell id="G5f44dBYUgscpnxHCPcD-34" value="" style="endArrow=none;html=1;" parent="1" edge="1">
          <mxGeometry width="50" height="50" relative="1" as="geometry">
            <mxPoint x="-200" y="911.60009765625" as="sourcePoint" />
            <mxPoint x="-200" y="320" as="targetPoint" />
          </mxGeometry>
        </mxCell>
        <mxCell id="G5f44dBYUgscpnxHCPcD-35" value="" style="endArrow=classic;html=1;" parent="1" edge="1">
          <mxGeometry width="50" height="50" relative="1" as="geometry">
            <mxPoint x="-200" y="320" as="sourcePoint" />
            <mxPoint x="-360" y="320" as="targetPoint" />
          </mxGeometry>
        </mxCell>
        <mxCell id="G5f44dBYUgscpnxHCPcD-36" value="True" style="text;html=1;align=center;verticalAlign=middle;resizable=0;points=[];autosize=1;strokeColor=none;" parent="1" vertex="1">
          <mxGeometry x="-460" y="460" width="40" height="20" as="geometry" />
        </mxCell>
        <mxCell id="G5f44dBYUgscpnxHCPcD-37" value="True" style="text;html=1;align=center;verticalAlign=middle;resizable=0;points=[];autosize=1;strokeColor=none;" parent="1" vertex="1">
          <mxGeometry x="-460" y="564.5" width="40" height="20" as="geometry" />
        </mxCell>
        <mxCell id="G5f44dBYUgscpnxHCPcD-39" value="True" style="text;html=1;align=center;verticalAlign=middle;resizable=0;points=[];autosize=1;strokeColor=none;" parent="1" vertex="1">
          <mxGeometry x="-460" y="680" width="40" height="20" as="geometry" />
        </mxCell>
        <mxCell id="G5f44dBYUgscpnxHCPcD-40" value="True" style="text;html=1;align=center;verticalAlign=middle;resizable=0;points=[];autosize=1;strokeColor=none;" parent="1" vertex="1">
          <mxGeometry x="-465" y="790" width="40" height="20" as="geometry" />
        </mxCell>
        <mxCell id="G5f44dBYUgscpnxHCPcD-41" value="False" style="text;html=1;align=center;verticalAlign=middle;resizable=0;points=[];autosize=1;strokeColor=none;" parent="1" vertex="1">
          <mxGeometry x="-360" y="520" width="50" height="20" as="geometry" />
        </mxCell>
        <mxCell id="G5f44dBYUgscpnxHCPcD-42" value="False" style="text;html=1;align=center;verticalAlign=middle;resizable=0;points=[];autosize=1;strokeColor=none;" parent="1" vertex="1">
          <mxGeometry x="-360" y="630" width="50" height="20" as="geometry" />
        </mxCell>
        <mxCell id="G5f44dBYUgscpnxHCPcD-43" value="False" style="text;html=1;align=center;verticalAlign=middle;resizable=0;points=[];autosize=1;strokeColor=none;" parent="1" vertex="1">
          <mxGeometry x="-360" y="740" width="50" height="20" as="geometry" />
        </mxCell>
        <mxCell id="G5f44dBYUgscpnxHCPcD-44" value="False" style="text;html=1;align=center;verticalAlign=middle;resizable=0;points=[];autosize=1;strokeColor=none;" parent="1" vertex="1">
          <mxGeometry x="-360" y="850" width="50" height="20" as="geometry" />
        </mxCell>
        <mxCell id="G5f44dBYUgscpnxHCPcD-45" value="False" style="text;html=1;align=center;verticalAlign=middle;resizable=0;points=[];autosize=1;strokeColor=none;" parent="1" vertex="1">
          <mxGeometry x="-635" y="890" width="50" height="20" as="geometry" />
        </mxCell>
        <mxCell id="G5f44dBYUgscpnxHCPcD-46" value="True" style="text;html=1;align=center;verticalAlign=middle;resizable=0;points=[];autosize=1;strokeColor=none;" parent="1" vertex="1">
          <mxGeometry x="-520" y="950" width="40" height="20" as="geometry" />
        </mxCell>
        <mxCell id="G5f44dBYUgscpnxHCPcD-49" value="" style="endArrow=classic;html=1;exitX=0.5;exitY=1;exitDx=0;exitDy=0;entryX=0.5;entryY=0;entryDx=0;entryDy=0;" parent="1" source="j_K-GDXODY1bReVwgwL4-30" target="j_K-GDXODY1bReVwgwL4-32" edge="1">
          <mxGeometry width="50" height="50" relative="1" as="geometry">
            <mxPoint x="-440" y="930" as="sourcePoint" />
            <mxPoint x="-390" y="880" as="targetPoint" />
          </mxGeometry>
        </mxCell>
      </root>
    </mxGraphModel>
  </diagram>
</mxfile>
